<svg width="14" height="18" viewBox="0 0 14 18" fill="none" xmlns="http://www.w3.org/2000/svg">
<path d="M7 18C10.7282 18 13.75 15.75 13.75 11.8125C13.75 10.4564 13.3867 8.3738 12.0764 6.44043C11.7633 5.9785 10.5277 6.72255 10.0655 7.03534V7.03534C9.68068 7.29582 9.68958 6.6887 9.70612 6.22429C9.78532 4.00025 8.32109 1.46878 6.09807 0.423349C5.47276 0.12928 4.88856 0.714488 4.94471 1.40321C5.09002 3.18547 4.72783 4.96774 2.5 6.75C1.09375 7.875 0.25 9.82012 0.25 11.8125C0.25 15.75 3.27175 18 7 18ZM7 16.875C5.13588 16.875 3.625 15.75 3.625 13.7812C3.625 13.1168 3.79944 12.1034 4.42306 11.1533C4.58811 10.9018 5.26014 11.2935 5.47596 11.503V11.503C5.67631 11.6975 5.77294 11.3271 5.77807 11.0479C5.79436 10.1604 6.2022 9.15963 6.88381 8.5168C7.38666 8.04255 7.95144 8.59848 8.03568 9.28454C8.11612 9.93969 8.43106 10.5948 9.25 11.25C9.95312 11.8125 10.375 12.7845 10.375 13.7812C10.375 15.75 8.86412 16.875 7 16.875Z" fill="#05A4E9"/>
</svg>
